<svg width="52.199999999999996" height="44.3" xmlns="http://www.w3.org/2000/svg" xml:space="preserve" version="1.1">

 <g>
  <title>Layer 1</title>
  <path id="svg_5" d="m2.53385,31.35535l0,-16.4052l0,0c0,-7.04693 6.10405,-12.75961 13.63377,-12.75961l0,0l0,0c3.6159,0 7.0837,1.34431 9.64053,3.7372c2.55683,2.39289 3.99324,5.63835 3.99324,9.0224l0,1.8228l3.89536,0l-7.79072,7.29121l-7.79073,-7.29121l3.89536,0l0,-1.8228c0,-3.02011 -2.61602,-5.4684 -5.84304,-5.4684l0,0l0,0c-3.22703,0 -5.84305,2.44829 -5.84305,5.4684l0,16.4052l-7.79073,0z" stroke="#000" fill="#33666C"/>
  <path id="svg_8" d="m-109.5095,-49.18268l0,-0.83812l0,0c0,-0.36002 0.29185,-0.65187 0.65187,-0.65187l0,0l0,0c0.17289,0 0.33869,0.06868 0.46095,0.19093c0.12225,0.12225 0.19093,0.28806 0.19093,0.46095l0,0.09312l0.18625,0l-0.3725,0.3725l-0.3725,-0.3725l0.18625,0l0,-0.09312c0,-0.15429 -0.12508,-0.27937 -0.27937,-0.27937l0,0l0,0c-0.15429,0 -0.27937,0.12508 -0.27937,0.27937l0,0.83812l-0.3725,0z" stroke="#000" fill="#fff"/>
  <path id="svg_10" d="m22.82402,34.869l6.20743,-5.54015l0,2.77008l9.31113,0l0,-8.31023l-3.10371,0l6.20743,-5.54015l6.20743,5.54015l-3.10371,0l0,13.85038l-15.51856,0l0,2.77008l-6.20743,-5.54015l0,0z" stroke="#000" fill="#8B4D4B"/>
 </g>
</svg>