<?xml version="1.0" standalone="no"?>
<!DOCTYPE svg PUBLIC "-//W3C//DTD SVG 20010904//EN"
 "http://www.w3.org/TR/2001/REC-SVG-20010904/DTD/svg10.dtd">
<svg version="1.0" xmlns="http://www.w3.org/2000/svg"
 width="382.000000pt" height="107.000000pt" viewBox="0 0 382.000000 107.000000"
 preserveAspectRatio="xMidYMid meet">

<g transform="translate(0.000000,107.000000) scale(0.100000,-0.100000)"
fill="#000000" stroke="none">
<path d="M455 914 c-67 -21 -94 -24 -170 -21 -50 3 -98 8 -107 12 -16 6 -18 1
-18 -47 0 -30 -5 -59 -10 -64 -7 -7 -9 -125 -8 -335 l3 -324 555 0 555 0 3
328 c2 285 0 328 -13 333 -11 5 -15 21 -15 61 0 49 -2 54 -17 48 -10 -4 -53
-9 -96 -12 -67 -5 -93 -2 -178 22 -95 27 -103 28 -177 16 -56 -9 -89 -10 -122
-2 -65 15 -95 13 -185 -15z m208 -10 c15 -6 17 -35 17 -306 0 -262 -2 -299
-15 -294 -53 20 -115 17 -206 -9 -99 -29 -200 -35 -252 -16 l-27 11 0 294 0
294 98 -4 c84 -4 108 -2 177 20 78 25 159 29 208 10z m273 -10 c77 -22 102
-25 182 -21 l92 5 0 -298 0 -299 -47 -7 c-79 -12 -133 -7 -228 21 -71 21 -101
25 -144 20 -30 -4 -60 -9 -68 -12 -11 -4 -13 48 -13 296 l0 301 28 6 c15 3 32
7 37 9 28 9 81 2 161 -21z m-273 -610 c23 -8 22 -27 0 -20 -68 19 -114 17
-205 -10 -51 -15 -113 -28 -138 -28 -64 -1 -140 13 -140 26 0 7 16 8 46 3 82
-12 148 -6 229 19 78 25 159 29 208 10z m272 -10 c92 -26 141 -31 226 -19 59
8 69 -10 12 -22 -70 -13 -147 -6 -243 22 -86 25 -100 27 -154 17 -57 -11 -77
-10 -63 4 9 9 66 22 102 23 17 1 71 -11 120 -25z m-272 -30 c33 -12 17 -25
-20 -17 -61 13 -123 7 -203 -18 -76 -23 -154 -29 -223 -16 -61 13 -45 29 20
21 87 -12 140 -7 223 21 73 25 154 28 203 9z m268 -9 c90 -28 143 -32 227 -21
55 8 76 -8 25 -18 -87 -17 -121 -16 -198 4 -148 40 -155 41 -213 30 -75 -14
-92 3 -20 20 57 14 92 11 179 -15z"/>
<path d="M446 844 c-44 -13 -93 -24 -108 -24 -18 0 -28 -5 -28 -15 0 -21 33
-19 130 10 46 14 107 25 137 25 40 0 53 4 53 15 0 23 -91 18 -184 -11z"/>
<path d="M435 774 c-62 -20 -94 -24 -143 -21 -46 4 -62 1 -62 -8 0 -17 94 -28
140 -16 19 5 70 19 114 31 51 14 90 20 112 15 27 -5 34 -3 34 10 0 24 -101 18
-195 -11z"/>
<path d="M535 733 c-11 -2 -60 -16 -108 -30 -70 -20 -100 -24 -143 -18 -45 5
-54 4 -54 -9 0 -27 124 -21 232 10 60 17 104 24 129 21 28 -4 39 -1 39 8 0 11
-49 28 -69 24 -3 -1 -15 -3 -26 -6z"/>
<path d="M455 643 c-57 -17 -101 -24 -153 -24 -55 1 -73 -2 -70 -12 8 -24 123
-20 216 8 48 14 108 25 135 25 46 0 62 12 31 24 -29 11 -79 5 -159 -21z"/>
<path d="M446 575 c-52 -16 -104 -25 -148 -25 -64 0 -87 -10 -52 -24 33 -13
114 -5 194 19 46 14 108 25 138 25 38 0 53 4 50 13 -8 22 -98 18 -182 -8z"/>
<path d="M415 498 c-42 -13 -79 -18 -122 -16 -76 5 -89 -17 -18 -28 70 -10
215 24 215 51 0 18 0 18 -75 -7z"/>
<path d="M545 465 c-5 -2 -54 -15 -109 -30 -77 -21 -111 -26 -152 -21 -44 5
-54 3 -54 -9 0 -11 13 -15 48 -17 72 -2 90 1 186 29 58 16 102 23 127 20 29
-4 39 -2 39 9 0 8 -8 14 -17 14 -10 0 -27 2 -38 5 -11 2 -24 2 -30 0z"/>
<path d="M455 373 c-56 -18 -101 -25 -152 -25 -57 1 -73 -2 -73 -14 0 -25 129
-18 226 12 54 17 99 25 129 22 48 -3 64 15 23 26 -39 10 -70 6 -153 -21z"/>
<path d="M757 863 c-17 -16 -3 -23 51 -23 31 0 95 -12 141 -25 84 -25 144 -31
189 -19 44 12 21 24 -46 24 -44 0 -98 9 -152 25 -79 24 -169 33 -183 18z"/>
<path d="M750 784 c0 -13 7 -15 39 -9 29 5 68 -2 150 -25 91 -26 120 -30 166
-25 35 5 55 12 55 20 0 10 -15 12 -58 8 -45 -4 -80 1 -150 21 -106 30 -202 35
-202 10z"/>
<path d="M778 733 c-16 -2 -28 -10 -28 -17 0 -10 12 -12 44 -9 30 4 72 -3 134
-21 99 -30 221 -34 230 -8 3 10 -9 12 -54 7 -47 -5 -77 -1 -144 18 -98 29
-144 36 -182 30z"/>
<path d="M820 655 c0 -8 7 -15 16 -15 8 0 55 -11 104 -25 96 -28 210 -32 218
-7 3 9 -15 12 -70 11 -51 0 -98 7 -157 25 -98 30 -111 31 -111 11z"/>
<path d="M757 593 c-17 -16 -3 -23 48 -23 30 0 94 -11 141 -25 85 -25 147 -31
192 -19 45 12 20 24 -50 24 -49 0 -99 8 -153 25 -76 24 -164 33 -178 18z"/>
<path d="M750 514 c0 -14 7 -15 38 -10 23 3 61 0 93 -9 164 -45 173 -47 226
-40 31 4 53 11 53 19 0 9 -18 11 -63 8 -49 -3 -84 2 -149 22 -101 31 -198 35
-198 10z"/>
<path d="M783 463 c-20 -3 -33 -10 -33 -18 0 -11 10 -13 43 -9 29 4 68 -2 127
-19 92 -27 109 -30 188 -28 39 1 52 5 52 16 0 12 -11 14 -58 9 -46 -5 -78 -1
-148 19 -108 31 -130 34 -171 30z"/>
<path d="M768 393 c-10 -2 -18 -10 -18 -18 0 -10 11 -12 40 -8 25 4 67 -1 106
-12 36 -10 68 -15 71 -11 25 25 -138 65 -199 49z"/>
<path d="M2565 721 c-28 -6 -29 -9 -27 -47 l3 -40 -59 4 c-50 4 -63 1 -80 -16
-50 -50 -53 -172 -7 -218 28 -28 81 -32 125 -9 25 13 29 13 34 0 6 -18 16 -18
51 -5 23 9 25 12 14 32 -8 16 -12 70 -11 166 1 78 -1 141 -6 141 -4 -1 -20 -4
-37 -8z m-23 -168 c2 -16 2 -49 0 -74 -3 -38 -8 -49 -29 -58 -65 -30 -111 83
-61 147 6 6 27 12 48 12 34 0 38 -3 42 -27z"/>
<path d="M2866 721 l-28 -6 0 -165 1 -165 35 -3 35 -3 3 98 3 98 29 3 c44 5
51 -9 48 -108 l-3 -90 39 0 39 0 -3 98 c-1 53 -3 105 -3 114 -2 45 -82 65
-129 32 l-22 -15 0 60 c0 34 -3 60 -7 60 -5 -1 -21 -4 -37 -8z"/>
<path d="M1659 645 c-17 -9 -36 -11 -55 -6 -42 11 -95 -4 -121 -34 -29 -33
-30 -88 -4 -114 19 -19 19 -20 -1 -33 -11 -8 -20 -24 -19 -38 0 -14 1 -34 1
-45 1 -11 -2 -34 -6 -52 -6 -29 -3 -33 22 -40 44 -12 126 -9 162 6 37 15 52
38 52 75 0 36 -34 54 -118 62 -40 4 -72 10 -72 14 0 11 27 20 61 20 37 0 85
24 99 49 5 11 10 35 10 55 0 25 5 36 19 41 13 4 17 12 14 26 -7 27 -14 29 -44
14z m-61 -67 c7 -7 12 -24 12 -38 0 -52 -61 -71 -82 -25 -23 51 32 101 70 63z
m17 -218 c35 -13 27 -33 -17 -44 -45 -11 -98 8 -98 35 0 16 8 19 44 19 25 0
57 -5 71 -10z"/>
<path d="M1843 639 c-92 -19 -136 -105 -99 -194 37 -89 189 -85 238 6 10 18
18 46 18 62 0 35 -22 88 -43 105 -23 20 -77 29 -114 21z m74 -88 c20 -26 16
-98 -7 -121 -46 -46 -110 -10 -110 61 0 22 5 49 11 60 22 41 75 41 106 0z"/>
<path d="M2110 623 c-78 -54 -87 -160 -19 -217 59 -50 171 -25 206 44 7 14 13
47 13 74 0 41 -5 53 -34 82 -30 30 -40 34 -88 34 -34 0 -62 -6 -78 -17z m127
-90 c25 -60 -4 -123 -57 -123 -76 0 -94 143 -21 168 35 12 59 -2 78 -45z"/>
<path d="M3200 633 c-24 -9 -60 -45 -60 -61 0 -10 5 -12 18 -7 57 25 112 13
112 -25 0 -13 -11 -19 -44 -24 -61 -9 -96 -39 -96 -80 0 -17 5 -37 12 -44 16
-16 61 -15 103 2 29 12 34 12 39 0 7 -18 37 -18 61 -1 12 10 14 16 7 21 -8 5
-12 40 -12 97 0 76 -3 92 -20 109 -20 20 -83 26 -120 13z m70 -166 c0 -27 -6
-36 -27 -46 -21 -10 -28 -9 -35 1 -14 22 -4 52 22 65 36 18 40 17 40 -20z"/>
<path d="M3449 601 c-36 -36 -39 -43 -39 -96 0 -52 3 -60 34 -91 29 -29 41
-34 83 -34 83 0 143 52 146 127 3 88 -42 133 -134 133 -46 0 -55 -4 -90 -39z
m148 -62 c29 -56 -2 -129 -56 -129 -77 0 -94 131 -21 167 29 15 57 1 77 -38z"/>
</g>
</svg>
