<svg width="160" height="37" xmlns="http://www.w3.org/2000/svg" version="1.1" xml:space="preserve">
 <title>dd</title>

 <g>
  <title>Layer 1</title>
  <text fill="#000000" stroke="#000" stroke-width="0" x="110.86267" y="23.08886" id="svg_15" font-size="24" font-family="Noto Sans JP" text-anchor="start" xml:space="preserve" transform="matrix(0.8902, 0, 0, 1.01007, -38.4862, 2.89546)">goodhao.pl</text>
  <path fill="#000000" stroke="#000" stroke-width="0" d="m3.71038,33.79431l0,-16.77054l0,0c0,-7.20386 5.31787,-13.04375 11.87781,-13.04375l0,0l0,0c3.1502,0 6.17136,1.37425 8.39889,3.82043c2.22753,2.44617 3.47892,5.7639 3.47892,9.22332l0,1.86339l3.39365,0l-6.78731,7.45357l-6.78733,-7.45357l3.39365,0l0,-1.86339c0,-3.08738 -2.27908,-5.59018 -5.09048,-5.59018l0,0l0,0c-2.8114,0 -5.09048,2.5028 -5.09048,5.59018l0,16.77054l-6.78733,0z" id="svg_16"/>
  <path fill="#000000" stroke="#000" stroke-width="0" d="m27.30537,27.87516l7.68152,-7.70051l0,3.85024l11.52227,0l0,-11.55075l-3.84077,0l7.68152,-7.70051l7.68152,7.70051l-3.84077,0l0,19.25122l-19.2038,0l0,3.85024l-7.68152,-7.70051l0,0l0.00002,0.00006z" id="svg_18"/>
 </g>
</svg>